<svg aria-hidden="true" style="position: absolute; width: 0; height: 0; overflow: hidden;" version="1.1" xmlns="http://www.w3.org/2000/svg" xmlns:xlink="http://www.w3.org/1999/xlink">
<defs>
<symbol id="linkedin" viewBox="0 0 32 32">
<path   d="M0 16c0-8.837 7.163-16 16-16s16 7.163 16 16c0 8.837-7.163 16-16 16s-16-7.163-16-16z"></path>
<path fill="#fff" style="fill: var(--color2, #fff)" d="M11.546 9.882c0 1.046-0.787 1.883-2.052 1.883h-0.023c-1.217 0-2.004-0.837-2.004-1.883 0-1.068 0.811-1.882 2.051-1.882s2.004 0.814 2.028 1.882zM11.307 13.252v10.895h-3.626v-10.895h3.626zM24.383 24.146l0-6.247c0-3.346-1.789-4.904-4.175-4.904-1.925 0-2.787 1.057-3.268 1.799v-1.543h-3.626c0.048 1.022 0 10.894 0 10.894h3.626v-6.084c0-0.326 0.024-0.65 0.119-0.884 0.262-0.65 0.859-1.324 1.86-1.324 1.313 0 1.837 0.999 1.837 2.463v5.829h3.626z"></path>
</symbol>
<symbol id="phone" viewBox="0 0 32 32">
<path stroke-linejoin="round" stroke-linecap="round" stroke-miterlimit="4" stroke-width="2.6667" d="M29.333 22.56v4c0 0.003 0 0.007 0 0.011 0 1.473-1.194 2.667-2.667 2.667-0.084 0-0.168-0.004-0.251-0.012l0.011 0.001c-4.327-0.482-8.236-1.943-11.607-4.155l0.1 0.062c-3.242-2.081-5.919-4.758-7.938-7.897l-0.062-0.103c-2.158-3.286-3.62-7.214-4.083-11.442l-0.010-0.118c-0.007-0.072-0.011-0.155-0.011-0.24 0-1.472 1.192-2.665 2.664-2.667h4c0.008-0 0.017-0 0.026-0 1.341 0 2.451 0.99 2.639 2.279l0.002 0.014c0.188 1.4 0.515 2.665 0.973 3.864l-0.039-0.117c0.108 0.279 0.171 0.601 0.171 0.938 0 0.731-0.294 1.394-0.771 1.875l-1.693 1.693c1.932 3.356 4.644 6.068 7.897 7.945l0.103 0.055 1.693-1.693c0.482-0.476 1.144-0.771 1.875-0.771 0.337 0 0.66 0.063 0.957 0.177l-0.018-0.006c1.082 0.418 2.347 0.745 3.658 0.924l0.089 0.010c1.304 0.189 2.294 1.299 2.294 2.641 0 0.023-0 0.046-0.001 0.070l0-0.003z"></path>
</symbol>
<symbol id="mail" viewBox="0 0 32 32">
<path d="M26.667 5.333h-21.333c-1.467 0-2.653 1.2-2.653 2.667l-0.013 16c0 1.467 1.2 2.667 2.667 2.667h21.333c1.467 0 2.667-1.2 2.667-2.667v-16c0-1.467-1.2-2.667-2.667-2.667zM26.133 11l-9.427 5.893c-0.427 0.267-0.987 0.267-1.413 0l-9.427-5.893c-0.333-0.213-0.533-0.573-0.533-0.96 0-0.893 0.973-1.427 1.733-0.96l8.933 5.587 8.933-5.587c0.76-0.467 1.733 0.067 1.733 0.96 0 0.387-0.2 0.747-0.533 0.96z"></path>
</symbol>
<symbol id="menu" viewBox="0 0 32 32">
<path d="M2 6h28v6h-28zM2 14h28v6h-28zM2 22h28v6h-28z"></path>
</symbol>
<symbol id="cross" viewBox="0 0 32 32">
<path d="M31.708 25.708c-0-0-0-0-0-0l-9.708-9.708 9.708-9.708c0-0 0-0 0-0 0.105-0.105 0.18-0.227 0.229-0.357 0.133-0.356 0.057-0.771-0.229-1.057l-4.586-4.586c-0.286-0.286-0.702-0.361-1.057-0.229-0.13 0.048-0.252 0.124-0.357 0.228 0 0-0 0-0 0l-9.708 9.708-9.708-9.708c-0-0-0-0-0-0-0.105-0.104-0.227-0.18-0.357-0.228-0.356-0.133-0.771-0.057-1.057 0.229l-4.586 4.586c-0.286 0.286-0.361 0.702-0.229 1.057 0.049 0.13 0.124 0.252 0.229 0.357 0 0 0 0 0 0l9.708 9.708-9.708 9.708c-0 0-0 0-0 0-0.104 0.105-0.18 0.227-0.229 0.357-0.133 0.355-0.057 0.771 0.229 1.057l4.586 4.586c0.286 0.286 0.702 0.361 1.057 0.229 0.13-0.049 0.252-0.124 0.357-0.229 0-0 0-0 0-0l9.708-9.708 9.708 9.708c0 0 0 0 0 0 0.105 0.105 0.227 0.18 0.357 0.229 0.356 0.133 0.771 0.057 1.057-0.229l4.586-4.586c0.286-0.286 0.362-0.702 0.229-1.057-0.049-0.13-0.124-0.252-0.229-0.357z"></path>
</symbol>
</defs>
</svg>
